<?xml version="1.0" standalone="no"?>
<!DOCTYPE svg PUBLIC "-//W3C//DTD SVG 20010904//EN"
 "http://www.w3.org/TR/2001/REC-SVG-20010904/DTD/svg10.dtd">
<svg version="1.0" xmlns="http://www.w3.org/2000/svg"
 width="200.000000pt" height="200.000000pt" viewBox="0 0 200.000000 200.000000"
 preserveAspectRatio="xMidYMid meet">

<g transform="translate(0.000000,200.000000) scale(0.100000,-0.100000)"
fill="#000000" stroke="none">
<path d="M281 1616 c-50 -28 -64 -87 -31 -129 l20 -26 -54 -51 c-29 -28 -69
-79 -87 -113 -31 -57 -34 -69 -34 -149 0 -74 3 -91 23 -117 l23 -31 -31 -26
c-80 -68 -81 -171 -1 -204 39 -16 72 -7 116 31 l35 31 0 -46 c0 -65 41 -111
98 -111 28 0 48 7 64 22 22 21 26 21 128 9 58 -7 119 -19 135 -28 71 -38 219
-79 306 -85 49 -3 89 -9 89 -13 0 -3 23 -31 50 -60 28 -29 50 -59 50 -66 0 -7
14 -26 31 -43 24 -24 39 -31 70 -31 22 0 48 5 58 12 14 9 23 8 42 -5 34 -24
110 -22 142 3 40 32 61 98 54 177 -4 53 -14 84 -47 147 -26 51 -44 100 -47
131 l-5 50 52 25 c84 39 133 103 169 218 19 60 39 106 53 119 23 21 69 37 140
48 69 11 93 91 42 142 -24 24 -30 25 -97 20 -53 -5 -89 -15 -137 -39 -80 -41
-119 -90 -148 -189 -32 -106 -52 -142 -91 -161 l-34 -17 -43 44 c-28 27 -66
52 -101 65 -69 26 -223 50 -319 50 l-72 0 -21 53 c-12 28 -30 63 -40 76 -19
25 -19 25 10 52 75 70 -8 192 -100 145 -16 -9 -34 -23 -38 -31 -7 -12 -17 -10
-63 13 -47 23 -68 27 -141 27 -84 0 -87 1 -102 28 -15 25 -53 47 -80 47 -7 -1
-23 -7 -36 -14z m84 -31 c14 -13 25 -29 25 -34 0 -16 -90 -73 -106 -67 -8 3
-19 17 -26 31 -19 43 16 92 70 94 7 1 24 -10 37 -24z m119 -54 c-54 -13 -63
-25 -24 -31 l35 -6 -39 -20 -39 -21 26 -7 c28 -7 37 -26 13 -26 -7 0 -19 -7
-26 -15 -11 -13 -8 -15 14 -15 22 0 26 -5 26 -27 l0 -28 18 23 c12 15 24 21
35 16 21 -8 22 9 2 26 -21 17 -8 33 21 26 28 -7 30 0 8 26 -15 16 -15 18 0 24
8 3 29 1 46 -4 35 -13 40 0 8 22 -12 9 -19 18 -15 22 23 24 197 -118 197 -161
0 -12 -11 -39 -25 -59 -27 -40 -21 -46 18 -16 l25 20 5 -27 c7 -35 1 -47 -29
-63 -33 -18 -30 -34 5 -27 24 5 28 3 26 -11 -16 -78 -15 -83 4 -77 19 6 51
-17 51 -36 0 -21 -29 -75 -51 -96 -24 -22 -28 -22 -121 -11 -108 12 -224 2
-315 -28 -49 -16 -55 -16 -97 0 -108 41 -178 122 -178 204 0 55 24 147 46 177
14 19 15 19 41 -9 30 -33 40 -30 25 8 -14 38 -13 71 4 85 11 9 15 5 19 -19 10
-46 26 -36 29 18 3 46 5 48 66 89 65 44 108 61 152 61 21 0 21 -1 -6 -7z m355
-32 c18 -32 8 -74 -20 -89 -18 -10 -26 -6 -60 28 -21 22 -39 47 -39 56 0 43
95 47 119 5z m1083 -66 c40 -36 12 -113 -42 -113 -46 0 -125 -29 -149 -54 -24
-26 -42 -25 -74 2 -39 34 -27 -18 14 -64 19 -20 19 -22 -1 -87 -12 -37 -23
-67 -26 -67 -2 0 -21 7 -41 15 -44 18 -43 18 -43 0 0 -9 11 -27 24 -40 l24
-24 -22 -20 c-28 -26 -36 -26 -36 -2 0 11 -12 34 -27 51 -22 26 -24 35 -15 49
7 9 19 31 27 49 14 28 20 32 55 32 49 0 51 11 5 33 l-34 16 14 42 c33 93 98
156 189 185 60 19 136 17 158 -3z m-875 -239 c16 -4 23 -16 28 -50 4 -26 22
-68 47 -104 38 -58 40 -64 34 -118 l-5 -57 19 40 c35 72 35 97 1 161 -36 69
-41 114 -12 114 10 0 49 -9 86 -21 61 -19 66 -22 60 -42 -5 -12 -9 -55 -10
-95 -2 -58 -7 -80 -25 -104 -33 -45 -15 -46 30 -1 36 37 40 46 40 90 0 28 6
57 15 69 15 19 15 19 31 -1 33 -42 54 -96 64 -167 6 -40 15 -90 21 -111 12
-46 0 -64 -61 -92 -22 -10 -40 -22 -40 -27 0 -13 60 -9 105 7 36 13 41 13 50
-3 40 -67 47 -186 15 -240 -25 -40 -34 -40 -48 1 -11 31 -11 31 -6 -10 5 -40
4 -43 -22 -49 -37 -9 -57 5 -71 52 l-11 39 -2 -35 -2 -35 -13 30 c-8 17 -14
42 -15 58 0 15 -3 26 -7 25 -12 -3 -87 74 -111 113 -25 41 -27 49 -10 49 29 0
109 82 95 97 -3 2 -18 -2 -34 -10 -15 -8 -46 -18 -67 -21 l-39 -7 6 55 c3 31
4 56 1 56 -2 0 -10 -15 -18 -34 -16 -38 -88 -121 -120 -138 -12 -6 -34 -15
-51 -19 -26 -6 -22 -7 20 -8 28 -1 75 6 105 13 50 14 56 13 68 -1 6 -9 12 -20
12 -24 0 -13 -90 -24 -190 -23 -82 1 -110 6 -205 38 -60 20 -114 41 -118 45
-13 13 105 0 151 -16 23 -9 45 -13 49 -9 3 3 1 6 -6 6 -6 0 -31 9 -53 20 -29
14 -62 20 -108 20 -64 0 -67 1 -105 40 -21 22 -43 40 -48 40 -5 0 -7 -16 -4
-35 6 -34 5 -35 -26 -35 -49 0 -76 10 -70 26 3 7 -15 -4 -39 -26 -62 -57 -113
-54 -82 5 20 39 10 44 -12 6 -21 -36 -29 -38 -44 -12 -11 22 -5 46 19 76 16
20 16 20 -7 1 -12 -11 -24 -17 -26 -15 -11 11 26 71 55 88 27 17 159 57 163
49 12 -28 39 -66 55 -76 19 -13 20 -12 19 32 0 26 2 49 5 52 2 3 38 2 80 -2
l75 -7 11 -37 c6 -21 20 -49 31 -62 l19 -23 1 56 c0 50 3 57 25 67 36 17 84
97 91 155 6 41 9 46 17 31 6 -11 27 -38 48 -61 40 -44 56 -94 44 -140 -9 -38
9 -18 24 26 6 19 11 48 11 65 0 29 -6 42 -51 107 -9 13 -19 39 -23 57 -5 30
-4 32 22 32 15 0 37 -3 49 -6z m-867 -246 c18 -13 42 -40 53 -60 l19 -38 -33
-27 c-65 -56 -83 -55 -55 5 14 29 14 34 2 22 -8 -8 -21 -27 -29 -42 -13 -25
-15 -26 -35 -12 -28 19 -28 44 0 80 20 25 20 27 3 14 -11 -8 -23 -19 -27 -25
-14 -19 -8 26 7 55 13 26 39 49 56 50 3 0 21 -10 39 -22z m1051 -404 c10 -9
25 -14 34 -10 26 10 71 -53 74 -105 1 -20 -48 -44 -62 -30 -5 5 -13 27 -17 48
l-8 38 -1 -44 c-1 -38 -3 -42 -17 -30 -8 7 -25 30 -36 52 -11 22 -32 50 -46
64 -22 20 -24 26 -12 34 19 12 69 3 91 -17z"/>
<path d="M300 1360 c0 -5 5 -10 10 -10 6 0 10 -11 10 -24 0 -29 17 -37 48 -23
30 14 28 24 -10 47 -36 22 -58 26 -58 10z"/>
<path d="M645 1324 c-5 -1 -36 -8 -67 -14 -32 -6 -58 -16 -58 -21 0 -5 6 -9
14 -9 8 0 16 -7 20 -15 8 -22 37 -18 43 5 3 13 17 22 39 26 19 3 34 10 34 15
0 10 -12 17 -25 13z"/>
<path d="M353 1174 c-3 -8 -1 -20 6 -27 6 -6 11 -20 11 -30 0 -19 -10 -20 -52
-2 -11 4 -18 3 -18 -4 0 -31 129 -42 180 -16 17 9 30 20 30 25 0 13 -17 13
-25 0 -3 -5 -24 -14 -47 -20 -54 -15 -68 0 -32 33 23 22 25 28 15 41 -17 21
-60 21 -68 0z"/>
<path d="M908 663 c6 -2 18 -2 25 0 6 3 1 5 -13 5 -14 0 -19 -2 -12 -5z"/>
</g>
</svg>
